<?xml version="1.0" encoding="utf-8"?>
<!-- Generated by IcoMoon.io -->
<!DOCTYPE svg PUBLIC "-//W3C//DTD SVG 1.1//EN" "http://www.w3.org/Graphics/SVG/1.1/DTD/svg11.dtd">
<svg version="1.1" xmlns="http://www.w3.org/2000/svg" xmlns:xlink="http://www.w3.org/1999/xlink" width="35" height="36" viewBox="0 0 35 36">
<g>
</g>
	<path d="M15.055 12.682c0 0.491 0 2.536 0 2.536h-1.8v3.027h1.8v9.082h3.764v-9.082h2.536c0 0 0.245-1.473 0.327-3.109-0.327 0-2.864 0-2.864 0s0-1.8 0-2.127c0-0.327 0.409-0.736 0.818-0.736 0.409 0 1.227 0 2.045 0 0-0.409 0-1.882 0-3.191-1.064 0-2.291 0-2.782 0-3.927 0.082-3.845 3.191-3.845 3.6z" fill="#000000" />
</svg>
