<?xml version="1.0" encoding="utf-8"?>
<!-- Generated by IcoMoon.io -->
<!DOCTYPE svg PUBLIC "-//W3C//DTD SVG 1.1//EN" "http://www.w3.org/Graphics/SVG/1.1/DTD/svg11.dtd">
<svg version="1.1" xmlns="http://www.w3.org/2000/svg" xmlns:xlink="http://www.w3.org/1999/xlink" width="35" height="36" viewBox="0 0 35 36">
<g>
</g>
	<path d="M23.318 18.164c0 3.109-2.536 5.645-5.645 5.645-3.109 0-5.645-2.536-5.645-5.645 0-0.409 0-0.736 0.082-1.064h-3.764v7.445c0 1.636 1.309 2.945 2.945 2.945h12.764c1.636 0 2.945-1.309 2.945-2.945v-7.445h-3.764c0.082 0.327 0.082 0.736 0.082 1.064zM24.136 8.836h-12.764c-1.636 0-2.945 1.309-2.945 2.945v3.109h4.745c1.064-1.473 2.7-2.373 4.582-2.373 1.882 0 3.6 0.982 4.582 2.373h4.745v-3.109c0-1.636-1.309-2.945-2.945-2.945zM25.527 12.436c0 0.327-0.245 0.491-0.491 0.491h-1.555c-0.245 0-0.491-0.245-0.491-0.491v-1.555c0-0.245 0.245-0.491 0.491-0.491h1.555c0.245 0 0.491 0.245 0.491 0.491v1.555zM21.191 18.164c0-1.882-1.555-3.436-3.436-3.436-1.882 0-3.436 1.555-3.436 3.436 0 1.964 1.555 3.436 3.436 3.436 1.882 0.082 3.436-1.473 3.436-3.436z" fill="#000000" />
</svg>
