<?xml version="1.0" encoding="utf-8"?>
<!-- Generated by IcoMoon.io -->
<!DOCTYPE svg PUBLIC "-//W3C//DTD SVG 1.1//EN" "http://www.w3.org/Graphics/SVG/1.1/DTD/svg11.dtd">
<svg version="1.1" xmlns="http://www.w3.org/2000/svg" xmlns:xlink="http://www.w3.org/1999/xlink" width="36" height="36" viewBox="0 0 36 36">
<g>
</g>
	<path d="M12.893 10.716c0 1.088-0.837 2.009-2.177 2.009s-2.093-0.921-2.093-2.009c0-1.172 0.837-2.009 2.177-2.009 1.256 0 2.093 0.921 2.093 2.009zM8.707 14.4h4.102v13.144h-4.102v-13.144zM15.237 18.586c0-1.674-0.084-3.014-0.084-4.186h3.516l0.167 1.842h0.084c0.502-0.837 1.842-2.093 4.102-2.093 2.679 0 4.688 1.842 4.688 5.693v7.786h-4.102v-7.284c0-1.674-0.586-2.846-2.093-2.846-1.088 0-1.842 0.754-2.093 1.507-0.084 0.251-0.167 0.67-0.167 1.005v7.619h-4.102v-9.042z" fill="#000000" />
</svg>
