<?xml version="1.0" encoding="utf-8"?>
<!-- Generated by IcoMoon.io -->
<!DOCTYPE svg PUBLIC "-//W3C//DTD SVG 1.1//EN" "http://www.w3.org/Graphics/SVG/1.1/DTD/svg11.dtd">
<svg version="1.1" xmlns="http://www.w3.org/2000/svg" xmlns:xlink="http://www.w3.org/1999/xlink" width="36" height="36" viewBox="0 0 36 36">
<g>
</g>
	<path d="M29.455 11.209c-0.818 0.409-1.718 0.655-2.7 0.736 0.982-0.573 1.718-1.473 2.045-2.618-0.9 0.573-1.882 0.9-2.945 1.145-0.9-0.9-2.127-1.473-3.436-1.473-2.618 0-4.664 2.127-4.664 4.664 0 0.409 0 0.736 0.082 1.064-3.927-0.164-7.364-2.045-9.655-4.909-0.409 0.736-0.655 1.473-0.655 2.373 0 1.636 0.818 3.027 2.045 3.927-0.736 0-1.473-0.245-2.127-0.573v0.082c0 2.291 1.636 4.173 3.764 4.582-0.409 0.082-0.818 0.164-1.227 0.164-0.327 0-0.573 0-0.9-0.082 0.573 1.882 2.291 3.191 4.418 3.273-1.555 1.227-3.6 1.964-5.809 1.964-0.409 0-0.736 0-1.145-0.082 2.045 1.309 4.5 2.127 7.2 2.127 8.591 0 13.336-7.118 13.336-13.336 0-0.245 0-0.409 0-0.573 0.9-0.655 1.718-1.473 2.373-2.455z" fill="#000000" />
</svg>
